HIERARCHY
ROOT Joint1
{
	OFFSET 0.000000 0.000000 0.000000
	CHANNELS 6 Xposition Yposition Zposition Xrotation Yrotation Zrotation
	JOINT Joint2
	{
		OFFSET -0.000000 0.000000 1.456275
		CHANNELS 6 Xposition Yposition Zposition Xrotation Yrotation Zrotation
		JOINT Joint3
		{
			OFFSET -0.000000 0.000002 1.471446
			CHANNELS 6 Xposition Yposition Zposition Xrotation Yrotation Zrotation
			JOINT Joint4
			{
				OFFSET 0.625745 0.000000 0.917755
				CHANNELS 6 Xposition Yposition Zposition Xrotation Yrotation Zrotation
				JOINT Joint5
				{
					OFFSET -0.629534 0.000001 0.940221
					CHANNELS 6 Xposition Yposition Zposition Xrotation Yrotation Zrotation
					JOINT Joint6
					{
						OFFSET -0.000001 0.113772 1.960660
						CHANNELS 6 Xposition Yposition Zposition Xrotation Yrotation Zrotation
						JOINT Joint7
						{
							OFFSET -0.669733 -0.113771 0.388340
							CHANNELS 6 Xposition Yposition Zposition Xrotation Yrotation Zrotation
							End Site
							{
								OFFSET 0.005509 0.005509 0.438980
							}
						}
					}
				}
			}
		}
	}
}
MOTION
Frames: 12
Frame Time: 0.041667
0.000000 0.000000 0.000000 -0.000000 1.019410 -44.264738 -0.000000 0.000000 1.456275 0.000006 -58.285638 0.000001 -0.000000 0.000002 1.471446 -0.000000 -1.133460 -9.433675 0.625745 0.000000 0.917755 0.000002 81.149034 -0.000016 -0.629534 0.000001 0.940221 0.000001 1.709735 -48.966958 -0.000001 0.113772 1.960660 -88.303875 123.962018 -0.000001 -0.669733 -0.113771 0.388339 -1.201677 3.437465 -195.840894 
0.000000 0.000000 0.000000 -0.000000 1.019410 -42.494200 -0.000000 0.000000 1.456275 -0.000001 -57.753621 -0.000000 -0.000000 0.000002 1.471446 0.000002 -1.133459 -9.057443 0.625745 0.000000 0.917755 0.000002 83.304033 -0.000010 -0.629534 0.000001 0.940221 -0.000000 1.709734 -47.008835 -0.000001 0.113772 1.960660 -88.303882 122.602346 0.000003 -0.669733 -0.113771 0.388340 -1.183464 3.447367 -197.008405 
0.000000 0.000000 0.000000 -0.000000 1.019410 -41.107702 -0.000000 0.000000 1.456275 -0.000007 -57.337007 -0.000001 -0.000000 0.000002 1.471446 -0.000000 -1.133462 -8.762823 0.625745 0.000000 0.917755 -0.000017 84.991589 0.000011 -0.629534 0.000001 0.940221 0.000002 1.709737 -45.475447 -0.000001 0.113772 1.960660 -88.303882 121.537588 0.000004 -0.669733 -0.113771 0.388340 -1.169063 3.454861 -197.922695 
0.000000 0.000000 0.000000 -0.000000 1.019410 -40.002263 -0.000000 0.000000 1.456275 -0.000007 -57.004844 0.000007 -0.000000 0.000002 1.471446 0.000002 -1.133460 -8.527923 0.625744 0.000000 0.917755 -0.000016 86.337061 0.000002 -0.629533 0.000001 0.940220 -0.000001 1.709738 -44.252902 -0.000001 0.113772 1.960660 -88.303875 120.688678 -0.000003 -0.669733 -0.113771 0.388341 -1.157494 3.460667 -198.651653 
0.000000 0.000000 0.000000 -0.000000 1.019410 -38.953136 -0.000000 0.000000 1.456275 -0.000004 -56.689600 0.000005 -0.000000 0.000002 1.471446 -0.000001 -1.133463 -8.304987 0.625745 0.000000 0.917755 -0.000056 87.613992 0.000003 -0.629534 0.000001 0.940221 -0.000001 1.709738 -43.092623 -0.000001 0.113772 1.960659 -88.303882 119.882989 -0.000000 -0.669733 -0.113771 0.388339 -1.146452 3.466044 -199.343497 
0.000000 0.000000 0.000000 -0.000000 1.019410 -37.791720 -0.000000 -0.000000 1.456275 -0.000000 -56.340615 -0.000001 -0.000000 0.000002 1.471446 0.000005 -1.133460 -8.058192 0.625745 0.000000 0.917755 -0.000112 89.027602 0.000083 -0.629534 0.000001 0.940221 -0.000001 1.709735 -41.808148 -0.000001 0.113772 1.960660 -88.303875 118.991102 -0.000005 -0.669733 -0.113771 0.388340 -1.134153 3.471844 -200.109380 
0.000000 0.000000 0.000000 -0.000000 1.019410 -36.573990 -0.000000 -0.000000 1.456275 0.000000 -55.974708 -0.000004 -0.000000 0.000002 1.471446 -0.000002 -1.133460 -7.799432 0.625745 0.000000 0.917755 0.000213 90.509746 -0.000109 -0.629534 0.000001 0.940221 -0.000002 1.709737 -40.461409 -0.000001 0.113773 1.960660 -88.303882 118.055940 0.000007 -0.669733 -0.113771 0.388341 -1.121169 3.477743 -200.912405 
0.000000 0.000000 0.000000 -0.000000 1.019410 -35.412079 -0.000000 0.000000 1.456275 -0.000003 -55.625573 0.000001 -0.000000 0.000002 1.471446 -0.000001 -1.133460 -7.552531 0.625745 0.000000 0.917755 0.000069 91.923958 -0.000080 -0.629534 0.000001 0.940221 0.000002 1.709739 -39.176401 -0.000001 0.113772 1.960660 -88.303875 117.163658 -0.000004 -0.669733 -0.113771 0.388339 -1.108706 3.483207 -201.678629 
0.000000 0.000000 0.000000 -0.000000 1.019410 -34.362128 -0.000000 0.000000 1.456275 -0.000007 -55.310080 0.000002 -0.000000 0.000002 1.471446 -0.000002 -1.133460 -7.329424 0.625744 0.000000 0.917755 0.000057 93.201879 -0.000010 -0.629534 0.000001 0.940221 -0.000000 1.709739 -38.015218 -0.000000 0.113772 1.960660 -88.303875 116.357354 -0.000000 -0.669733 -0.113772 0.388340 -1.097384 3.488000 -202.371033 
0.000000 0.000000 0.000000 -0.000000 1.019410 -33.256369 -0.000000 0.000000 1.456275 -0.000001 -54.977825 -0.000001 -0.000000 0.000002 1.471446 -0.000002 -1.133461 -7.094455 0.625745 0.000000 0.917755 -0.000003 94.547747 0.000004 -0.629534 0.000001 0.940221 -0.000001 1.709737 -36.792303 -0.000001 0.113772 1.960660 -88.303882 115.508198 -0.000001 -0.669733 -0.113771 0.388340 -1.085397 3.492898 -203.100238 
0.000000 0.000000 0.000000 -0.000000 1.019410 -31.871018 -0.000000 -0.000000 1.456275 -0.000002 -54.561556 -0.000001 -0.000000 0.000002 1.471446 -0.000001 -1.133462 -6.800074 0.625745 0.000000 0.917755 0.000017 96.233916 -0.000009 -0.629533 0.000001 0.940221 0.000001 1.709739 -35.260179 -0.000001 0.113772 1.960661 -88.303875 114.444321 -0.000006 -0.669733 -0.113771 0.388340 -1.070292 3.498818 -204.013816 
0.000000 0.000000 0.000000 -0.000000 1.019410 -30.102751 -0.000000 0.000000 1.456275 0.000000 -54.030218 -0.000001 -0.000000 0.000002 1.471446 -0.000000 -1.133462 -6.424331 0.625745 0.000000 0.917755 0.000006 98.386150 -0.000007 -0.629534 0.000001 0.940221 -0.000001 1.709737 -33.304569 -0.000000 0.113772 1.960660 -88.303875 113.086383 -0.000004 -0.669733 -0.113771 0.388340 -1.050878 3.506027 -205.179962 
